<svg width="60" height="60" viewBox="0 0 60 60" fill="none" xmlns="http://www.w3.org/2000/svg">
<rect width="60" height="60" rx="6" fill="#D32F2F"/>
<g clip-path="url(#clip0_1578_1278)">
<path fill-rule="evenodd" clip-rule="evenodd" d="M32.569 19.8486H44.0332C45.1953 19.8486 46.1462 20.7955 46.1462 21.9532V38.8946C46.1462 40.0519 45.1953 40.9989 44.0332 40.9989H32.569C31.4069 40.9989 30.4561 40.0519 30.4561 38.8946V21.9529C30.4561 20.7955 31.4069 19.8486 32.569 19.8486ZM12.9766 15H47.0234C47.8428 15 48.5872 15.3336 49.126 15.8704C49.665 16.4073 50 17.1484 50 17.9644V42.0353C50 42.8516 49.6654 43.5927 49.126 44.1296C48.5872 44.6661 47.8428 45 47.0234 45H12.9766C12.1572 45 11.4131 44.6664 10.874 44.1296C10.335 43.5927 10 42.8516 10 42.0356V17.9644C10 17.1484 10.335 16.407 10.874 15.8704C11.4131 15.3336 12.1572 15 12.9766 15ZM25.6084 38.2481H26.8984C27.3577 38.2481 27.7331 38.6223 27.7331 39.0794V40.1375C27.7331 40.5949 27.3577 40.9687 26.8984 40.9687H25.6084C25.1494 40.9687 24.7738 40.5949 24.7738 40.1375V39.0794C24.7738 38.6223 25.1494 38.2481 25.6084 38.2481ZM25.6084 33.8304H26.8984C27.3577 33.8304 27.7331 34.2046 27.7331 34.6617V35.7198C27.7331 36.1772 27.3577 36.551 26.8984 36.551H25.6084C25.1494 36.551 24.7738 36.1772 24.7738 35.7198V34.6617C24.7738 34.2046 25.1494 33.8304 25.6084 33.8304ZM20.6243 38.2481H21.9144C22.3734 38.2481 22.749 38.6223 22.749 39.0794V40.1375C22.749 40.5949 22.3734 40.9687 21.9144 40.9687H20.6243C20.165 40.9687 19.7897 40.5949 19.7897 40.1375V39.0794C19.7894 38.6223 20.165 38.2481 20.6243 38.2481ZM20.6243 33.8304H21.9144C22.3734 33.8304 22.749 34.2046 22.749 34.6617V35.7198C22.749 36.1772 22.3734 36.551 21.9144 36.551H20.6243C20.165 36.551 19.7897 36.1772 19.7897 35.7198V34.6617C19.7894 34.2046 20.165 33.8304 20.6243 33.8304ZM15.64 38.2481H16.93C17.3893 38.2481 17.7646 38.6223 17.7646 39.0794V40.1375C17.7646 40.5949 17.389 40.9687 16.93 40.9687H15.64C15.181 40.9687 14.8053 40.5949 14.8053 40.1375V39.0794C14.8053 38.6223 15.181 38.2481 15.64 38.2481ZM15.64 33.8304H16.93C17.3893 33.8304 17.7646 34.2046 17.7646 34.6617V35.7198C17.7646 36.1772 17.389 36.551 16.93 36.551H15.64C15.181 36.551 14.8053 36.1772 14.8053 35.7198V34.6617C14.8053 34.2046 15.181 33.8304 15.64 33.8304ZM16.613 19.9899H25.9251C26.5804 19.9899 27.1771 20.2583 27.6097 20.6888H27.6123C28.0452 21.12 28.3145 21.7155 28.3145 22.3694V28.7679C28.3145 29.4218 28.0449 30.017 27.612 30.4482C27.179 30.879 26.5814 31.1475 25.9248 31.1475H16.613C15.9564 31.1475 15.3584 30.8794 14.9255 30.4485L14.8851 30.4044C14.4766 29.9771 14.2236 29.4001 14.2236 28.7679V22.3691C14.2236 21.7162 14.4925 21.122 14.9248 20.6908L14.9274 20.6882C15.3607 20.2577 15.9574 19.9899 16.613 19.9899ZM25.9255 21.3638H16.613C16.335 21.3638 16.082 21.4766 15.8991 21.6582C15.7168 21.8407 15.6035 22.0923 15.6035 22.3691V28.7676C15.6035 29.0308 15.7064 29.2711 15.873 29.4507L15.9007 29.4766C16.084 29.6591 16.3369 29.7729 16.613 29.7729H25.9251C26.2008 29.7729 26.4535 29.6591 26.637 29.4763C26.8203 29.2938 26.9349 29.0422 26.9349 28.7673V22.3691C26.9349 22.0942 26.8206 21.8423 26.6374 21.6598C26.4557 21.4773 26.2031 21.3638 25.9255 21.3638ZM47.0234 16.6109H12.9766C12.6038 16.6109 12.264 16.7636 12.0173 17.0093C11.7708 17.2547 11.6175 17.5932 11.6175 17.9644V42.0353C11.6175 42.4068 11.7708 42.745 12.0173 42.9907C12.264 43.2361 12.6038 43.3891 12.9766 43.3891H47.0234C47.3965 43.3891 47.736 43.2361 47.9827 42.9907C48.2292 42.745 48.3825 42.4065 48.3825 42.0353V17.9644C48.3825 17.5929 48.2292 17.2547 47.9827 17.009C47.7363 16.7636 47.3965 16.6109 47.0234 16.6109ZM40.1221 23.1164C40.6976 23.3174 41.3073 23.6182 41.848 24.0302C42.3066 24.3797 42.7171 24.8099 43.0173 25.3273C43.1266 25.5154 43.2275 25.7151 43.3187 25.9267C43.4069 26.1303 43.487 26.3482 43.557 26.5793C43.6562 26.9038 43.7402 27.2504 43.8079 27.618C43.8757 27.9827 43.9268 28.3633 43.9613 28.7582C43.9951 29.1443 44.0127 29.5557 44.0146 29.9898C44.0166 30.4184 44.0029 30.8635 43.9736 31.3228C43.9495 31.6007 43.917 31.8798 43.8887 32.1576C43.8809 32.2403 43.8102 32.3022 43.7282 32.3022L43.11 32.3029C43.0212 32.3029 42.9482 32.2306 42.9482 32.1417L43.0355 31.283C43.0355 31.0353 43.0426 30.7597 43.0495 30.4894C43.0632 29.9506 43.0762 29.4309 43.0247 28.8354C42.9925 28.4635 42.9463 28.1127 42.8864 27.785C42.8252 27.4533 42.75 27.1412 42.6615 26.8504C42.6025 26.6581 42.5355 26.4753 42.4609 26.3025L42.4577 26.2947C42.3818 26.1193 42.2972 25.9527 42.2061 25.7951L42.2015 25.787C41.9635 25.3792 41.6318 25.0372 41.2607 24.7571C40.8057 24.4138 40.291 24.1632 39.8141 23.9969C39.3812 23.8458 38.9264 23.7673 38.471 23.7602C38.0085 23.7527 37.543 23.8179 37.0973 23.9521C36.9352 24.0024 36.7751 24.0614 36.6188 24.1294C36.4658 24.1956 36.3154 24.2711 36.1689 24.3554C36.0566 24.4202 35.9287 24.4335 35.8135 24.4027C35.6973 24.3719 35.5928 24.2967 35.5277 24.1846C35.4626 24.0727 35.4495 23.945 35.4801 23.8305C35.5114 23.7148 35.5869 23.6107 35.6992 23.5459C35.877 23.4435 36.0596 23.352 36.2458 23.272L36.2575 23.2674C36.4427 23.188 36.6325 23.119 36.8242 23.0612C37.3639 22.8982 37.9277 22.8194 38.4889 22.8288C39.0436 22.8382 39.5964 22.9329 40.1221 23.1164ZM35.6016 28.3442C35.5628 28.7238 35.5902 29.1138 35.6208 29.5453C35.6305 29.6915 35.6419 29.8397 35.6494 29.9859C35.666 30.2786 35.6777 30.5678 35.6833 30.8518C35.6882 31.127 35.6875 31.3938 35.6803 31.65C35.6729 31.8924 35.6462 32.3155 35.6152 32.71L35.6149 32.7136C35.5869 33.0715 35.554 33.4119 35.528 33.5873C35.5166 33.6674 35.4469 33.7251 35.3682 33.7251H34.7461C34.6569 33.7251 34.5843 33.6525 34.5843 33.564L34.5892 33.5251C34.6162 33.3523 34.6494 33.0239 34.6777 32.677C34.7113 32.273 34.7383 31.8539 34.7448 31.626C34.7516 31.3825 34.7523 31.1274 34.7474 30.8628C34.7419 30.6019 34.7305 30.3256 34.7135 30.0358C34.7087 29.8967 34.695 29.7515 34.6852 29.6111C34.6501 29.1148 34.6178 28.6661 34.6686 28.2055C34.7197 27.7386 34.8551 27.2666 35.1543 26.7372C35.2204 26.6199 35.2939 26.5061 35.3747 26.3962C35.4538 26.2885 35.5413 26.1832 35.638 26.0817C35.7197 25.9955 35.8844 25.8415 36.0407 25.7167C36.1602 25.6214 36.2803 25.5384 36.3691 25.504C36.5479 25.4187 36.7246 25.3435 36.8981 25.28C37.0765 25.2145 37.2565 25.1587 37.4372 25.1143L37.445 25.1127C37.6292 25.068 37.8132 25.0356 37.9948 25.0171C38.1777 24.9986 38.36 24.9934 38.541 25.0028L38.5667 25.0044C38.6885 25.0155 38.7962 25.0725 38.8727 25.1568C38.9515 25.2437 38.998 25.3594 38.9932 25.4842L38.9919 25.5098C38.9808 25.6314 38.9235 25.739 38.8385 25.8152C38.7497 25.8956 38.6299 25.9413 38.5013 25.9348C38.3646 25.9277 38.2253 25.9316 38.0856 25.9459C37.9443 25.9605 37.8021 25.9857 37.6589 26.0201C37.5163 26.0551 37.3691 26.1012 37.2201 26.1556C37.0723 26.2098 36.9248 26.2723 36.779 26.3417C36.6911 26.3984 36.6097 26.4578 36.5352 26.519C36.459 26.5816 36.3867 26.6494 36.3197 26.7204C36.2516 26.7923 36.1885 26.8682 36.1312 26.946C36.0729 27.0251 36.0202 27.1074 35.973 27.192C35.7435 27.6009 35.64 27.9724 35.6016 28.3442ZM33.9495 30.8914C33.9248 31.3653 33.8525 31.8509 33.7578 32.1729C33.7214 32.2876 33.6865 32.3885 33.6449 32.5013C33.6201 32.5648 33.5589 32.6034 33.4945 32.6034L32.8226 32.6037C32.7337 32.6037 32.6611 32.5314 32.6611 32.4426C32.6611 32.4128 32.6689 32.3849 32.6833 32.3609C32.7171 32.2918 32.7484 32.2208 32.776 32.1495C32.806 32.073 32.8333 31.9933 32.8577 31.91C32.9368 31.6422 32.9867 31.3442 33.0049 31.0155C33.0231 30.6852 33.0094 30.3218 32.9626 29.9243C32.8734 29.4857 32.82 29.0626 32.8024 28.6577C32.7842 28.2427 32.8024 27.8456 32.8564 27.4712C32.9121 27.0809 33.0068 26.7113 33.1377 26.365C33.2702 26.0149 33.4401 25.6888 33.6452 25.3889L33.6484 25.3844C33.7217 25.281 33.8304 25.2148 33.9463 25.1934C34.0638 25.1711 34.1901 25.1938 34.2966 25.2664L34.3011 25.2693C34.4049 25.3419 34.4707 25.4502 34.4932 25.5662C34.515 25.6836 34.4922 25.8097 34.4196 25.9154C34.2555 26.1553 34.1191 26.4169 34.013 26.6986L34.0098 26.7064C33.9063 26.9842 33.8301 27.2841 33.7845 27.6028C33.7383 27.927 33.723 28.2693 33.7389 28.6285C33.7549 28.9822 33.8018 29.3537 33.8812 29.7415C33.9548 30.0342 33.9717 30.4602 33.9495 30.8914ZM40.1234 25.4881L40.2699 25.5828C40.3704 25.6541 40.4535 25.7167 40.5498 25.7929L40.6852 25.9109C41.2939 26.4607 41.7008 27.1765 41.9583 27.9844C42.2126 28.7806 42.3206 29.6695 42.3337 30.5772C42.3385 30.941 42.3177 31.459 42.2848 31.9813C42.2471 32.5804 42.1934 33.1873 42.1439 33.5831C42.1338 33.6645 42.0638 33.7244 41.9834 33.7244L41.3652 33.7248C41.276 33.7248 41.2035 33.6521 41.2035 33.5636L41.207 33.5296C41.2565 33.1393 41.3102 32.5489 41.3483 31.967C41.3822 31.447 41.4033 30.9364 41.3984 30.5876C41.387 29.7868 41.2956 29.0072 41.082 28.3167C40.8721 27.6375 40.5433 27.0436 40.054 26.6011L39.9525 26.5129L39.7422 26.3524L39.6344 26.285C39.5257 26.2182 39.4535 26.1128 39.4251 25.9968C39.3968 25.8814 39.4131 25.7543 39.4795 25.6457L39.486 25.6366C39.5534 25.5312 39.6563 25.4615 39.7695 25.4343C39.8864 25.4058 40.0133 25.422 40.1234 25.4881ZM40.3372 30.0005C40.3561 30.149 40.3704 30.291 40.3825 30.4404C40.4163 30.9448 40.4206 31.7744 40.3994 32.6232C40.3792 33.4187 40.3359 34.2305 40.2718 34.8059L40.2598 34.9126C40.2507 34.9946 40.1803 35.0552 40.0993 35.0549L36.7803 35.0555C36.6914 35.0555 36.6188 34.9829 36.6188 34.8944L36.6214 34.8652C36.6497 34.5534 36.6546 34.0431 36.6471 33.5007C36.6374 32.7911 36.6042 32.0215 36.5723 31.567L36.5391 31.0797L36.5127 30.5908C36.5026 30.3483 36.4948 30.1088 36.5013 29.8737C36.5078 29.6335 36.529 29.3998 36.5755 29.1774C36.7012 28.5747 37.0179 28.102 37.4199 27.8174C37.6774 27.6346 37.971 27.5276 38.2718 27.5133C38.5745 27.4991 38.8831 27.5772 39.1696 27.762C39.5947 28.0362 39.9704 28.5472 40.1989 29.3427L40.2008 29.3498C40.2223 29.428 40.2432 29.51 40.2624 29.594C40.2826 29.6831 40.3001 29.7706 40.3151 29.8556L40.3372 30.0005Z" fill="white"/>
</g>
<defs>
<clipPath id="clip0_1578_1278">
<rect width="40" height="30" fill="white" transform="translate(10 15)"/>
</clipPath>
</defs>
</svg>
