<svg width="60" height="60" viewBox="0 0 60 60" fill="none" xmlns="http://www.w3.org/2000/svg">
<rect width="60" height="60" rx="6" fill="#D32F2F"/>
<g clip-path="url(#clip0_1578_1316)">
<path fill-rule="evenodd" clip-rule="evenodd" d="M41.6559 39.8145C41.6559 39.6777 41.6559 39.5378 41.6559 39.401C41.6559 39.2643 41.6559 39.1243 41.6591 38.9844C41.8444 38.9746 41.9971 38.916 42.1141 38.8053C42.2311 38.6979 42.2929 38.5677 42.3059 38.4147C42.3189 38.2422 42.2636 38.0924 42.1434 37.959C42.0231 37.8288 41.8281 37.7539 41.5681 37.7344C41.3211 37.7148 41.1294 37.7604 40.9896 37.8711C40.8498 37.9818 40.7621 38.1283 40.7328 38.3203C40.6971 38.5579 40.7653 38.7793 40.9441 38.9811C40.8791 39.2025 40.8141 39.4238 40.7491 39.6452C40.3786 39.5475 40.0113 39.4499 39.6473 39.3522C39.2866 39.2546 38.9291 39.1569 38.5715 39.0592C38.6625 38.6947 38.7536 38.3301 38.8446 37.9655C38.9356 37.6009 39.0266 37.2363 39.1143 36.8717C39.3451 36.888 39.5726 36.9076 39.8033 36.9271C39.7481 37.1875 39.6928 37.4479 39.6376 37.7083C39.5823 37.9688 39.5271 38.2292 39.4718 38.4896C39.6993 38.5514 39.9268 38.61 40.1576 38.6719C40.1023 38.4798 40.0926 38.291 40.1283 38.0957C40.1608 37.9134 40.2258 37.7441 40.3136 37.5944C40.4013 37.4447 40.5183 37.3112 40.6581 37.1908C40.9376 36.9564 41.2659 36.8522 41.6429 36.8848C41.9581 36.9108 42.2311 37.0345 42.4684 37.2624C42.6309 37.4154 42.7544 37.5944 42.8324 37.7962C42.9104 37.998 42.9461 38.2227 42.9364 38.4733C42.9266 38.6719 42.8909 38.8509 42.8324 39.0104C42.7706 39.1699 42.6829 39.3066 42.5691 39.4271C42.3384 39.6615 42.0329 39.7917 41.6559 39.8145ZM15.0508 10H39.9203C40.4826 10 40.9961 10.2311 41.3699 10.6022C41.3829 10.6152 41.3959 10.6283 41.4056 10.6445C41.7534 11.0124 41.9711 11.5104 41.9711 12.054V32.6204C41.6656 32.6009 41.3601 32.5944 41.0579 32.5944C40.9538 32.5944 40.8498 32.5977 40.7458 32.5977V12.054C40.7458 11.8392 40.6646 11.6439 40.5281 11.4974L40.5021 11.4746C40.3526 11.3249 40.1478 11.2305 39.9203 11.2305H15.0508C14.8233 11.2305 14.6185 11.3216 14.469 11.4714H14.4658C14.3195 11.6211 14.2285 11.8262 14.2285 12.054V45.7389C14.2285 45.9538 14.3098 46.1491 14.4463 46.2956L14.4723 46.3184C14.6218 46.4681 14.8265 46.5625 15.054 46.5625H31.7854V46.7936C31.7854 47.1354 31.8179 47.4674 31.8797 47.7897H15.0508C14.4885 47.7897 13.975 47.5586 13.6013 47.1875C13.5883 47.1745 13.5753 47.1615 13.5655 47.1452C13.2145 46.7773 13 46.2826 13 45.7389V12.054C13 11.4909 13.2308 10.9766 13.6013 10.6055L13.6045 10.6022C13.9783 10.2311 14.4885 10 15.0508 10ZM34.808 16.2826H35.5165V20.1107H34.808V16.2826ZM18.0474 25.9408H21.5249C21.8207 25.9408 22.0677 26.1849 22.0677 26.4844V29.4238C22.0677 29.7201 21.8239 29.9674 21.5249 29.9674H18.0474C17.7516 29.9674 17.5046 29.7233 17.5046 29.4238V26.4844C17.5078 26.1816 17.7516 25.9408 18.0474 25.9408ZM18.0474 39.9089H21.5249C21.8207 39.9089 22.0677 40.153 22.0677 40.4525V43.3919C22.0677 43.6914 21.8239 43.9355 21.5249 43.9355H18.0474C17.7516 43.9355 17.5046 43.6914 17.5046 43.3919V40.4525C17.5078 40.153 17.7516 39.9089 18.0474 39.9089ZM18.0474 32.9232H21.5249C21.8207 32.9232 22.0677 33.1673 22.0677 33.4668V36.4063C22.0677 36.7025 21.8239 36.9499 21.5249 36.9499H18.0474C17.7516 36.9499 17.5046 36.7057 17.5046 36.4063V33.4668C17.5078 33.1673 17.7516 32.9232 18.0474 32.9232ZM33.4527 25.9408H36.927C37.2228 25.9408 37.4665 26.1849 37.4665 26.4844V29.4238C37.4665 29.7201 37.2228 29.9674 36.927 29.9674H33.4527C33.1569 29.9674 32.9099 29.7233 32.9099 29.4238V26.4844C32.9099 26.1816 33.1537 25.9408 33.4527 25.9408ZM33.4527 32.9232H36.927C37.0798 32.9232 37.2195 32.9883 37.3203 33.0924C35.4937 33.6035 33.9109 34.4954 32.9132 35.7487V33.4668C32.9099 33.1673 33.1537 32.9232 33.4527 32.9232ZM25.75 25.9408H29.2276C29.5234 25.9408 29.7704 26.1849 29.7704 26.4844V29.4238C29.7704 29.7201 29.5266 29.9674 29.2276 29.9674H25.75C25.4543 29.9674 25.2073 29.7233 25.2073 29.4238V26.4844C25.2073 26.1816 25.451 25.9408 25.75 25.9408ZM25.75 39.9089H29.2276C29.5234 39.9089 29.7704 40.153 29.7704 40.4525V43.3919C29.7704 43.6914 29.5266 43.9355 29.2276 43.9355H25.75C25.4543 43.9355 25.2073 43.6914 25.2073 43.3919V40.4525C25.2073 40.153 25.451 39.9089 25.75 39.9089ZM25.75 32.9232H29.2276C29.5234 32.9232 29.7704 33.1673 29.7704 33.4668V36.4063C29.7704 36.7025 29.5266 36.9499 29.2276 36.9499H25.75C25.4543 36.9499 25.2073 36.7057 25.2073 36.4063V33.4668C25.2073 33.1673 25.451 32.9232 25.75 32.9232ZM17.5891 14.0104H37.3788C37.6778 14.0104 37.9508 14.1341 38.1458 14.3294C38.162 14.3457 38.175 14.362 38.1913 14.3783C38.3603 14.5703 38.4643 14.8242 38.4643 15.0977V21.2923C38.4643 21.5918 38.344 21.862 38.1458 22.0605L38.1425 22.0638C37.9475 22.2591 37.6745 22.3828 37.3755 22.3828H17.5891C17.2901 22.3828 17.0171 22.2591 16.8221 22.0638C16.8058 22.0475 16.7896 22.0312 16.7766 22.015C16.6076 21.8229 16.5036 21.569 16.5036 21.2956V15.0977C16.5036 14.8014 16.6271 14.5313 16.8221 14.3327L16.8253 14.3294C17.0236 14.1341 17.2933 14.0104 17.5891 14.0104ZM37.239 15.2409H17.7321V21.1523H37.239V15.2409ZM47.6782 45.1823C47.8862 45.5339 48 45.9049 48 46.2891C48 48.3366 44.8377 49.9967 40.9376 49.9967C37.0375 49.9967 33.8752 48.3366 33.8752 46.2891C33.8752 45.9049 33.989 45.5306 34.197 45.1823C35.094 46.6895 37.7753 47.7832 40.9376 47.7832C44.1032 47.7832 46.7812 46.6927 47.6782 45.1823ZM40.9376 36.0775C44.1422 36.0775 46.7422 37.0996 46.7422 38.3561C46.7422 39.6159 44.1422 40.6348 40.9376 40.6348C37.733 40.6348 35.133 39.6191 35.133 38.3594C35.133 37.0996 37.733 36.0775 40.9376 36.0775ZM40.9376 35.3223C44.8377 35.3223 48 36.9824 48 39.0299C48 41.0775 44.8377 42.7376 40.9376 42.7376C37.0375 42.7344 33.8752 41.0742 33.8752 39.0299C33.8752 36.9824 37.0375 35.3223 40.9376 35.3223ZM47.701 41.5007C47.8927 41.8359 47.9967 42.1973 47.9967 42.5651C47.9967 44.6126 44.8344 46.2728 40.9343 46.2728C37.0343 46.2728 33.8719 44.6126 33.8719 42.5651C33.8719 42.194 33.9759 41.8392 34.1677 41.5007C35.042 43.0273 37.7395 44.1439 40.9343 44.1439C44.1324 44.1439 46.8332 43.0306 47.701 41.5007Z" fill="white"/>
</g>
<defs>
<clipPath id="clip0_1578_1316">
<rect width="35" height="40" fill="white" transform="translate(13 10)"/>
</clipPath>
</defs>
</svg>
