<svg width="100" height="100" viewBox="0 0 100 100" fill="none" xmlns="http://www.w3.org/2000/svg">
<g clip-path="url(#clip0_1707_77)">
<path d="M47.3434 74.8405C55.224 86.478 72.2484 87.293 78.4748 85.2178C106.818 75.77 82.8737 24.3514 68.0976 14.6533C53.3215 4.9552 28.347 14.4422 15.2126 27.373C2.07822 40.3037 9.98566 58.2374 20.3628 60.3127C28.4123 61.9227 39.4626 63.2028 47.3434 74.8405Z" fill="#EFEFEF"/>
<path d="M44.4436 20.1387C40.2247 20.1387 36.8047 23.5587 36.8047 27.7776V72.222C36.8047 76.4409 40.2247 79.8609 44.4436 79.8609H74.9991C79.218 79.8609 82.638 76.4409 82.638 72.222V37.4998C82.638 36.9473 82.4186 36.4173 82.0277 36.0267L66.75 20.7489C66.3594 20.3582 65.8294 20.1387 65.2769 20.1387H44.4436Z" fill="#F3F3F1"/>
<path fill-rule="evenodd" clip-rule="evenodd" d="M68.0562 79.8609H75.0007C79.2195 79.8609 82.6395 76.4409 82.6395 72.222V37.4998C82.6395 36.9473 82.4201 36.4173 82.0293 36.0267L66.7515 20.7489C66.3609 20.3582 65.8309 20.1387 65.2784 20.1387H58.334C58.8865 20.1387 59.4165 20.3582 59.807 20.7489L75.0848 36.0267C75.4757 36.4173 75.6951 36.9473 75.6951 37.4998V72.222C75.6951 76.4409 72.2751 79.8609 68.0562 79.8609Z" fill="#D6DBE1"/>
<path d="M82.638 39.5831V37.4998C82.638 36.9473 82.4186 36.4173 82.0277 36.0267L66.75 20.7489C66.3594 20.3582 65.8294 20.1387 65.2769 20.1387H61.8047V31.9442C61.8047 36.1631 65.2247 39.5831 69.4436 39.5831H82.638Z" fill="#D32F2F"/>
<path fill-rule="evenodd" clip-rule="evenodd" d="M74.3047 37.4998V39.5831H82.638V37.4998C82.638 36.9473 82.4186 36.4173 82.0277 36.0267L66.75 20.7489C66.3594 20.3582 65.8294 20.1387 65.2769 20.1387H61.8047V24.1368L73.6944 36.0267C74.0852 36.4173 74.3047 36.9473 74.3047 37.4998Z" fill="#970D0D"/>
<path fill-rule="evenodd" clip-rule="evenodd" d="M44.4436 24.3053C42.5258 24.3053 40.9714 25.8599 40.9714 27.7776V37.4998H36.8047V27.7776C36.8047 23.5587 40.2247 20.1387 44.4436 20.1387H65.2769C65.8294 20.1387 66.3594 20.3582 66.75 20.7489L82.0277 36.0267C82.4186 36.4173 82.638 36.9473 82.638 37.4998V72.222C82.638 76.4409 79.218 79.8609 74.9991 79.8609H44.4436C40.2247 79.8609 36.8047 76.4409 36.8047 72.222V71.6048H40.9714V72.222C40.9714 74.1398 42.5258 75.6942 44.4436 75.6942H74.9991C76.9169 75.6942 78.4714 74.1398 78.4714 72.222V38.3628L64.4139 24.3053H44.4436Z" fill="black"/>
<path fill-rule="evenodd" clip-rule="evenodd" d="M61.8047 31.9449V22.2227H65.9714V31.9449C65.9714 33.8627 67.5258 35.4171 69.4436 35.4171H80.5547V39.5838H69.4436C65.2247 39.5838 61.8047 36.1638 61.8047 31.9449Z" fill="black"/>
<path fill-rule="evenodd" clip-rule="evenodd" d="M59.0273 56.9438C59.0273 51.958 63.0693 47.916 68.0551 47.916H72.2218V52.0827H68.0551C65.3704 52.0827 63.194 54.2591 63.194 56.9438C63.194 59.6285 65.3704 61.8049 68.0551 61.8049H72.2218V65.9716H68.0551C63.0693 65.9716 59.0273 61.9296 59.0273 56.9438Z" fill="black"/>
<path fill-rule="evenodd" clip-rule="evenodd" d="M20.1387 55.5549C20.1387 51.336 23.5587 47.916 27.7776 47.916C31.9964 47.916 35.4164 51.336 35.4164 55.5549V63.8882H31.2498V59.0271H24.3053V63.8882H20.1387V55.5549ZM24.3748 54.8605H31.1803C30.8587 53.2755 29.4573 52.0827 27.7776 52.0827C26.0977 52.0827 24.6965 53.2755 24.3748 54.8605Z" fill="black"/>
<path fill-rule="evenodd" clip-rule="evenodd" d="M39.584 49.9993C39.584 48.8488 40.5168 47.916 41.6673 47.916H49.3062C52.3745 47.916 54.8618 50.4032 54.8618 53.4716C54.8618 54.7855 54.4057 55.9927 53.6432 56.9438C54.4057 57.8949 54.8618 59.1021 54.8618 60.416C54.8618 63.4843 52.3745 65.9716 49.3062 65.9716H41.6673C40.5168 65.9716 39.584 65.0388 39.584 63.8882V49.9993ZM43.7507 59.0271V61.8049H49.3062C50.0732 61.8049 50.6951 61.183 50.6951 60.416C50.6951 59.6491 50.0732 59.0271 49.3062 59.0271H43.7507ZM49.3062 54.8605C50.0732 54.8605 50.6951 54.2385 50.6951 53.4716C50.6951 52.7046 50.0732 52.0827 49.3062 52.0827H43.7507V54.8605H49.3062Z" fill="black"/>
<path d="M22.1033 77.8976C23.1881 78.9824 23.1881 80.7412 22.1033 81.8259C21.0185 82.9107 19.2597 82.9107 18.1749 81.8259C17.0901 80.7411 17.0901 78.9824 18.1749 77.8976C19.2597 76.8128 21.0185 76.8128 22.1033 77.8976Z" stroke="#A4AFC1"/>
</g>
<defs>
<clipPath id="clip0_1707_77">
<rect width="100" height="100" fill="white"/>
</clipPath>
</defs>
</svg>
