<svg width="100" height="100" viewBox="0 0 100 100" fill="none" xmlns="http://www.w3.org/2000/svg">
<path d="M88.4247 23.2695C88.4247 42.4834 98.3775 55.6779 98.3775 64.9362C98.3775 74.1945 93.0552 93.639 50.4636 93.639C7.87192 93.639 1.61914 67.4807 1.61914 57.2973C1.61914 9.61122 88.4247 -10.7582 88.4247 23.2695Z" fill="#EFEFEF"/>
<path d="M87.8223 12.502L91.7506 8.57358L93.7148 10.5378L89.7865 14.4661L87.8223 12.502Z" fill="#A4AFC1"/>
<path d="M88.8008 21.3398L90.765 19.3757L94.6933 23.304L92.7292 25.2682L88.8008 21.3398Z" fill="#A4AFC1"/>
<path d="M77.5078 10.0449L79.472 8.08074L83.4004 12.0091L81.4362 13.9733L77.5078 10.0449Z" fill="#A4AFC1"/>
<path d="M49.9993 64.5835C49.9993 64.5835 64.5827 58.1363 64.5827 45.2391C64.5827 40.0808 64.5827 34.3252 64.5827 34.3252L49.9993 29.8613L35.416 34.3252V45.2391C35.416 58.1363 49.9993 64.5835 49.9993 64.5835Z" fill="#D32F2F"/>
<path d="M41.666 45.2391C41.666 37.5002 41.666 34.3252 41.666 34.3252L53.1243 30.8169L49.9993 29.8613L35.416 34.3252V45.2391C35.416 58.1363 49.9993 64.5835 49.9993 64.5835C49.9993 64.5835 51.3077 63.9974 53.1243 62.853C48.841 60.1558 41.666 54.2919 41.666 45.2391Z" fill="#970D0D"/>
<path d="M50.0007 66.6664C49.7118 66.6664 49.4256 66.608 49.1562 66.4886C48.5118 66.2025 33.334 59.3275 33.334 45.2386V34.3247C33.334 33.408 33.9312 32.5997 34.8062 32.333L49.3895 27.8691C49.7868 27.7441 50.2145 27.7441 50.609 27.8691L65.1923 32.333C66.0673 32.5997 66.6645 33.408 66.6645 34.3247V45.2386C66.6645 59.3275 51.4868 66.2025 50.8423 66.4858C50.5757 66.608 50.2895 66.6664 50.0007 66.6664ZM37.5007 35.8664V45.2386C37.5007 54.9441 47.0618 60.7136 49.9979 62.258C52.9312 60.708 62.5007 54.908 62.5007 45.2386V35.8664L50.0007 32.0386L37.5007 35.8664Z" fill="black"/>
<path d="M50 77.8999V73.7332C64.5833 73.7332 76.4472 61.8693 76.4472 47.2832H80.6139C80.6139 64.1665 66.8806 77.8999 50 77.8999Z" fill="black"/>
<path d="M74.9229 38.516C71.2451 27.941 61.2312 20.8327 50.0007 20.8327C43.9757 20.8327 38.3395 22.8049 33.6951 26.5382L31.084 23.2938C36.4757 18.9577 43.0145 16.666 50.0007 16.666C63.0062 16.666 74.5979 24.8966 78.8562 37.1493L74.9229 38.516Z" fill="black"/>
<path d="M39.8109 76.1329C27.597 71.8551 19.3887 60.2579 19.3887 47.2773C19.3887 41.0885 21.2137 35.169 24.672 30.1523L28.0998 32.519C25.1303 36.8329 23.5553 41.9385 23.5553 47.2773C23.5553 58.494 30.6414 68.5107 41.1887 72.2023L39.8109 76.1329Z" fill="black"/>
<path d="M54.078 84.1978L47.1697 77.2922C46.778 76.9006 46.5586 76.3728 46.5586 75.82C46.5586 75.2672 46.778 74.7367 47.1697 74.3478L54.078 67.4395L57.0253 70.3867L51.5892 75.8228L57.0253 81.2561L54.078 84.1978Z" fill="black"/>
<path d="M27.262 40.3253L25.1509 32.4503L17.2759 34.5614L16.1953 30.5364L26.0842 27.8864C27.2231 27.5864 28.3425 28.2531 28.637 29.3586L31.287 39.2475L27.262 40.3253Z" fill="black"/>
<path d="M77.1695 41.4811C76.8168 41.4811 76.4584 41.3922 76.1306 41.2005L67.2695 36.0839L69.3529 32.4755L76.4112 36.5505L80.489 29.4922L84.0973 31.5755L78.9779 40.4366C78.5918 41.1061 77.8918 41.4811 77.1695 41.4811Z" fill="black"/>
<path d="M47.916 29.8613H52.0827V63.8891H47.916V29.8613Z" fill="black"/>
<path d="M35.416 43.1562H64.5827V47.3229H35.416V43.1562Z" fill="black"/>
</svg>
