<svg width="100" height="100" viewBox="0 0 100 100" fill="none" xmlns="http://www.w3.org/2000/svg">
<path d="M76.7308 88.4247C57.5169 88.4247 44.3224 98.3775 35.0641 98.3775C25.8058 98.3775 6.36133 93.0552 6.36133 50.4636C6.36133 7.87192 32.5197 1.61914 42.703 1.61914C90.3891 1.61914 110.759 88.4247 76.7308 88.4247Z" fill="#EFEFEF"/>
<path d="M72.1992 15.5977L74.1634 13.6335L78.0918 17.5618L76.1276 19.526L72.1992 15.5977Z" fill="#A4AFC1"/>
<path d="M83.4902 26.8945L85.4544 24.9303L89.3828 28.8587L87.4186 30.8229L83.4902 26.8945Z" fill="#A4AFC1"/>
<path d="M71.707 28.8574L75.6354 24.9291L77.5996 26.8932L73.6712 30.8216L71.707 28.8574Z" fill="#A4AFC1"/>
<path d="M83 17.5664L86.9284 13.638L88.8926 15.6022L84.9642 19.5306L83 17.5664Z" fill="#A4AFC1"/>
<path d="M59.0278 67.5556V24.3056C59.0278 21.2361 56.5417 18.75 53.4722 18.75H24.3056C21.2361 18.75 18.75 21.2361 18.75 24.3056V67.5556C18.75 70.625 21.2361 73.1111 24.3056 73.1111H53.4722C56.5417 73.1111 59.0278 70.625 59.0278 67.5556Z" fill="#F3F3F1"/>
<path d="M44.4453 33.334H50.0009V55.5562H44.4453V33.334Z" fill="#D32F2F"/>
<path d="M27.7773 44.4453H33.3329V55.5564H27.7773V44.4453Z" fill="#D32F2F"/>
<path d="M65.2769 64.584C74.0981 64.584 81.2491 61.7858 81.2491 58.334C81.2491 54.8822 74.0981 52.084 65.2769 52.084C56.4557 52.084 49.3047 54.8822 49.3047 58.334C49.3047 61.7858 56.4557 64.584 65.2769 64.584Z" fill="#D32F2F"/>
<path d="M49.3047 66.6673C49.3047 70.1201 56.4547 72.9173 65.2769 72.9173C74.0991 72.9173 81.2491 70.1201 81.2491 66.6673V58.334C81.2491 61.7868 74.0991 64.584 65.2769 64.584C56.4547 64.584 49.3047 61.7868 49.3047 58.334V66.6673Z" fill="#D32F2F"/>
<path d="M49.3047 74.9993C49.3047 78.4521 56.4547 81.2493 65.2769 81.2493C74.0991 81.2493 81.2491 78.4521 81.2491 74.9993V66.666C81.2491 70.1188 74.0991 72.916 65.2769 72.916C56.4547 72.916 49.3047 70.1188 49.3047 66.666V74.9993Z" fill="#D32F2F"/>
<path d="M25 67.5556V24.3056C25 21.2361 27.4861 18.75 30.5556 18.75H24.3056C21.2361 18.75 18.75 21.2361 18.75 24.3056V67.5556C18.75 70.625 21.2361 73.1111 24.3056 73.1111H30.5556C27.4861 73.1111 25 70.625 25 67.5556Z" fill="#D5DBE1"/>
<path d="M44.4453 33.334H47.2231V55.5562H44.4453V33.334Z" fill="#970D0D"/>
<path d="M27.7773 44.4453H30.5551V55.5564H27.7773V44.4453Z" fill="#970D0D"/>
<path d="M55.5547 75.0007V63.284C51.7602 62.1423 49.3047 60.3507 49.3047 58.334V75.0007C49.3047 78.4534 56.4547 81.2507 65.2769 81.2507C66.3464 81.2507 67.3908 81.209 68.4019 81.1284C61.0769 80.5618 55.5547 78.034 55.5547 75.0007Z" fill="#970D0D"/>
<path d="M55.5547 58.334C55.5547 55.3007 61.0769 52.7729 68.4019 52.2062C67.3908 52.1284 66.3464 52.084 65.2769 52.084C56.4547 52.084 49.3047 54.8812 49.3047 58.334C49.3047 61.7868 56.4547 64.584 65.2769 64.584C66.3464 64.584 67.3908 64.5423 68.4019 64.4618C61.0769 63.8951 55.5547 61.3673 55.5547 58.334Z" fill="#970D0D"/>
<path d="M36.8049 74.9993H24.3049C20.091 74.9993 16.666 71.5743 16.666 67.3605V24.3049C16.666 20.091 20.091 16.666 24.3049 16.666H53.4716C57.6855 16.666 61.1105 20.091 61.1105 24.3049V42.3605H56.9438V24.3049C56.9438 22.391 55.3855 20.8327 53.4716 20.8327H24.3049C22.391 20.8327 20.8327 22.391 20.8327 24.3049V67.3605C20.8327 69.2743 22.391 70.8327 24.3049 70.8327H36.8049V74.9993Z" fill="black"/>
<path d="M45.8327 48.6102H41.666V32.638C41.666 31.488 42.5993 30.5547 43.7493 30.5547H50.6938C51.8438 30.5547 52.7771 31.488 52.7771 32.638V45.138H48.6105V34.7214H45.8327V48.6102Z" fill="black"/>
<path d="M34.0278 58.3327H27.0833C25.9333 58.3327 25 57.3993 25 56.2493V43.7493C25 42.5993 25.9333 41.666 27.0833 41.666H34.0278C35.1778 41.666 36.1111 42.5993 36.1111 43.7493V56.2493C36.1111 57.3993 35.1778 58.3327 34.0278 58.3327ZM29.1667 54.166H31.9444V45.8327H29.1667V54.166Z" fill="black"/>
<path d="M22.2227 54.166H41.6671V58.3327H22.2227V54.166Z" fill="black"/>
<path d="M79.166 58.334H83.3327V75.0007H79.166V58.334Z" fill="black"/>
<path d="M47.2227 58.334H51.3893V75.0007H47.2227V58.334Z" fill="black"/>
<path d="M65.2782 66.6665C56.306 66.6665 47.2227 63.8054 47.2227 58.3332C47.2227 47.3915 83.3338 47.3915 83.3338 58.3332C83.3338 63.8054 74.2504 66.6665 65.2782 66.6665ZM65.2782 54.1665C56.1143 54.1665 51.3893 57.0888 51.3893 58.3332C51.3893 59.5776 56.1143 62.4999 65.2782 62.4999C74.4421 62.4999 79.1671 59.5776 79.1671 58.3332C79.1671 57.0888 74.4421 54.1665 65.2782 54.1665Z" fill="black"/>
<path d="M65.2782 83.3333C56.306 83.3333 47.2227 80.4722 47.2227 75H51.3893C51.3893 76.2444 56.1143 79.1667 65.2782 79.1667C74.4421 79.1667 79.1671 76.2444 79.1671 75H83.3338C83.3338 80.4722 74.2504 83.3333 65.2782 83.3333Z" fill="black"/>
<path d="M65.2782 74.9993C56.306 74.9993 47.2227 72.1382 47.2227 66.666H51.3893C51.3893 67.9105 56.1143 70.8327 65.2782 70.8327C74.4421 70.8327 79.1671 67.9105 79.1671 66.666H83.3338C83.3338 72.1382 74.2504 74.9993 65.2782 74.9993Z" fill="black"/>
</svg>
