<svg width="100" height="100" viewBox="0 0 100 100" fill="none" xmlns="http://www.w3.org/2000/svg">
<path d="M23.2695 11.5758C42.4834 11.5758 55.6779 1.62305 64.9362 1.62305C74.1946 1.62305 93.639 6.94527 93.639 49.5369C93.639 92.1286 67.4807 98.3786 57.2973 98.3786C9.61122 98.3814 -10.7582 11.5758 23.2695 11.5758Z" fill="#EFEFEF"/>
<path d="M71.9629 11.4434L73.9271 9.47917L77.8554 13.4075L75.8913 15.3717L71.9629 11.4434Z" fill="#A4AFC1"/>
<path d="M83.252 22.7402L85.2161 20.776L89.1445 24.7044L87.1803 26.6686L83.252 22.7402Z" fill="#A4AFC1"/>
<path d="M82.7559 13.3984L86.6842 9.47007L88.6484 11.4343L84.72 15.3626L82.7559 13.3984Z" fill="#A4AFC1"/>
<path d="M49.9991 75.6936C64.1898 75.6936 75.6936 64.1898 75.6936 49.9991C75.6936 35.8085 64.1898 24.3047 49.9991 24.3047C35.8085 24.3047 24.3047 35.8085 24.3047 49.9991C24.3047 64.1898 35.8085 75.6936 49.9991 75.6936Z" fill="#F3F3F1"/>
<path d="M61.8064 46.0079C61.8064 55.8718 50.0009 65.9746 50.0009 65.9746C50.0009 65.9746 38.1953 55.8746 38.1953 46.0079C38.1953 39.3912 43.4814 34.0273 50.0009 34.0273C56.5203 34.0273 61.8064 39.3912 61.8064 46.0079Z" fill="#D32F2F"/>
<path d="M49.9996 49.3058C51.9172 49.3058 53.4718 47.7512 53.4718 45.8336C53.4718 43.9159 51.9172 42.3613 49.9996 42.3613C48.0819 42.3613 46.5273 43.9159 46.5273 45.8336C46.5273 47.7512 48.0819 49.3058 49.9996 49.3058Z" fill="#F3F3F1"/>
<path d="M44.4453 46.0079C44.4453 40.4968 48.1342 35.9051 53.1259 34.5079C52.1231 34.2246 51.0898 34.0273 50.0009 34.0273C43.4814 34.0273 38.1953 39.3912 38.1953 46.0079C38.1953 55.8718 50.0009 65.9746 50.0009 65.9746C50.0009 65.9746 51.3509 64.8107 53.1259 62.9135C49.6286 59.1773 44.4453 52.5496 44.4453 46.0079Z" fill="#970D0D"/>
<path d="M30.5547 49.9991C30.5547 36.8686 40.4102 26.0575 53.1241 24.513C52.0964 24.388 51.0602 24.3047 49.9991 24.3047C35.8075 24.3047 24.3047 35.8075 24.3047 49.9991C24.3047 64.1908 35.8075 75.6936 49.9991 75.6936C51.0602 75.6936 52.0964 75.6102 53.1241 75.4852C40.4102 73.9408 30.5547 63.1297 30.5547 49.9991Z" fill="#D5DBE1"/>
<path d="M52.7773 45.8336C52.7773 45.3058 52.9135 44.8197 53.1246 44.3724C52.569 43.1919 51.3885 42.3613 49.9996 42.3613C48.0829 42.3613 46.5273 43.9169 46.5273 45.8336C46.5273 47.7502 48.0829 49.3058 49.9996 49.3058C51.3885 49.3058 52.569 48.4752 53.1246 47.2947C52.9135 46.8474 52.7773 46.3613 52.7773 45.8336Z" fill="#D5DBE1"/>
<path d="M50.0002 68.0564C49.5169 68.0564 49.0363 67.8898 48.6474 67.5564C48.1336 67.1175 36.1113 56.7092 36.1113 46.0092C36.1113 38.2564 42.3419 31.9453 50.0002 31.9453C57.6586 31.9453 63.8891 38.2536 63.8891 46.0092C63.8891 56.712 51.8669 67.1203 51.353 67.5592C50.9641 67.8898 50.4836 68.0564 50.0002 68.0564ZM50.0002 36.112C44.6391 36.112 40.278 40.5509 40.278 46.0092C40.278 52.9036 47.0447 60.2509 50.0002 63.1314C52.9558 60.2509 59.7224 52.9036 59.7224 46.0092C59.7224 40.5509 55.3613 36.112 50.0002 36.112Z" fill="black"/>
<path d="M50.0009 51.3885C46.937 51.3885 44.4453 48.8968 44.4453 45.8329C44.4453 42.769 46.937 40.2773 50.0009 40.2773C53.0648 40.2773 55.5564 42.769 55.5564 45.8329C55.5564 48.8968 53.0648 51.3885 50.0009 51.3885ZM50.0009 44.444C49.2342 44.444 48.612 45.069 48.612 45.8329C48.612 46.5968 49.2342 47.2218 50.0009 47.2218C50.7675 47.2218 51.3898 46.5968 51.3898 45.8329C51.3898 45.069 50.7675 44.444 50.0009 44.444Z" fill="black"/>
<path d="M50.0004 77.7782C34.6838 77.7782 22.2227 65.3171 22.2227 50.0004C22.2227 34.6838 34.6838 22.2227 50.0004 22.2227C65.3171 22.2227 77.7782 34.6838 77.7782 50.0004C77.7782 65.3171 65.3171 77.7782 50.0004 77.7782ZM50.0004 26.3893C36.981 26.3893 26.3893 36.981 26.3893 50.0004C26.3893 63.0199 36.981 73.6115 50.0004 73.6115C63.0199 73.6115 73.6115 63.0199 73.6115 50.0004C73.6115 36.981 63.0199 26.3893 50.0004 26.3893Z" fill="black"/>
<path d="M47.916 16.666H52.0827V28.9855H47.916V16.666Z" fill="black"/>
<path d="M47.916 71.0137H52.0827V83.3331H47.916V71.0137Z" fill="black"/>
<path d="M71.0137 47.916H83.3331V52.0827H71.0137V47.916Z" fill="black"/>
<path d="M16.666 47.916H28.9855V52.0827H16.666V47.916Z" fill="black"/>
</svg>
