<svg width="100" height="100" viewBox="0 0 100 100" fill="none" xmlns="http://www.w3.org/2000/svg">
<path d="M11.5758 76.7308C11.5758 57.5169 1.62305 44.3224 1.62305 35.0641C1.62305 25.8058 6.94527 6.36133 49.5369 6.36133C92.1286 6.36133 98.3786 32.5197 98.3786 42.703C98.3814 90.3891 11.5758 110.759 11.5758 76.7308Z" fill="#EFEFEF"/>
<path d="M62.5007 11.1107C60.2034 11.1107 58.334 9.24123 58.334 6.94401C58.334 4.64679 60.2034 2.77734 62.5007 2.77734C64.7979 2.77734 66.6673 4.64679 66.6673 6.94401C66.6673 9.24123 64.7979 11.1107 62.5007 11.1107ZM62.5007 5.55512C61.7368 5.55512 61.1118 6.18012 61.1118 6.94401C61.1118 7.7079 61.7368 8.3329 62.5007 8.3329C63.2645 8.3329 63.8895 7.7079 63.8895 6.94401C63.8895 6.18012 63.2645 5.55512 62.5007 5.55512Z" fill="#A4AFC1"/>
<path d="M50 81.25C67.2589 81.25 81.25 67.2589 81.25 50C81.25 32.7411 67.2589 18.75 50 18.75C32.7411 18.75 18.75 32.7411 18.75 50C18.75 67.2589 32.7411 81.25 50 81.25Z" fill="#F3F3F1"/>
<path d="M79.917 40.8882C77.0004 31.3882 69.6948 23.7771 60.3615 20.5271C60.1392 20.4438 59.917 20.416 59.6948 20.416C58.417 25.8327 59.1948 32.916 61.917 37.4716C63.7504 40.4993 67.0004 42.3327 70.5004 42.3327C70.917 42.3327 71.3337 42.3049 71.7504 42.2493L79.9726 41.3327C79.9726 41.1938 79.9726 41.0271 79.917 40.8882Z" fill="#D32F2F"/>
<path d="M41.7778 19.8613C28.3333 23.5002 18.75 35.9724 18.75 50.0002C18.75 54.4169 19.6389 58.6113 21.3889 62.5002H25.3333C27.5556 62.5002 29.5556 61.6113 31.0278 60.1669C32.4722 58.7224 33.3889 56.7224 33.4167 54.5002C33.4444 52.5002 34.1389 50.6669 35.3333 49.1947C36.5556 47.7502 38.2222 46.6669 40.1667 46.278C45.1944 45.1947 48.7778 40.778 48.7778 35.6391V32.7224C48.7778 27.8613 45.7778 22.6947 41.7778 19.8613Z" fill="#D32F2F"/>
<path d="M77.5002 50.944C76.7224 50.4996 75.8891 50.2773 75.0557 50.2773C73.5002 50.2773 72.0002 51.0273 71.1113 52.3885C69.3335 55.0273 65.9168 56.0829 62.9446 54.9162L61.3613 54.2773C59.9446 53.7218 58.4724 53.444 57.0002 53.444C53.9446 53.444 50.9168 54.6385 48.6946 56.8607C43.9724 61.6385 43.5835 69.194 47.8057 74.4162L53.2224 81.1107C67.9168 79.5829 79.6113 67.8885 81.0835 53.1107L77.5002 50.944Z" fill="#D32F2F"/>
<path d="M25 50C25 33.7972 37.3333 20.475 53.125 18.9083C52.0972 18.8056 51.0556 18.75 50 18.75C32.7417 18.75 18.75 32.7417 18.75 50C18.75 67.2583 32.7417 81.25 50 81.25C51.0556 81.25 52.0972 81.1944 53.125 81.0917C37.3333 79.525 25 66.2028 25 50Z" fill="#D5DBE1"/>
<path d="M25 50.0002C25 37.5585 32.5472 26.3558 43.6306 21.4391C43.0417 20.8641 42.4278 20.3224 41.7778 19.8613C28.3333 23.5002 18.75 35.9724 18.75 50.0002C18.75 54.4169 19.6389 58.6113 21.3889 62.5002H25.3333C26.0944 62.5002 26.8139 62.3613 27.5111 62.1669C25.8556 58.3697 25 54.2947 25 50.0002Z" fill="#970D0D"/>
<path d="M54.0557 74.4175C49.8335 69.1953 50.2224 61.6398 54.9446 56.862C56.3946 55.412 58.203 54.4481 60.1252 53.9203C59.0946 53.637 58.0502 53.4453 57.0002 53.4453C53.9446 53.4453 50.9168 54.6398 48.6946 56.862C43.9724 61.6398 43.5835 69.1953 47.8057 74.4175L53.2224 81.112C55.0752 80.9203 56.8807 80.562 58.6224 80.062L54.0557 74.4175Z" fill="#970D0D"/>
<path d="M68.167 37.4716C65.8504 33.5938 64.9559 27.8938 65.5254 22.941C63.8809 21.9993 62.1754 21.1577 60.3615 20.5271C60.1392 20.4438 59.917 20.416 59.6948 20.416C58.417 25.8327 59.1948 32.916 61.917 37.4716C63.7504 40.4993 67.0004 42.3327 70.5004 42.3327C70.917 42.3327 71.3337 42.3049 71.7504 42.2493L74.142 41.9827C71.6865 41.316 69.5337 39.7271 68.167 37.4716Z" fill="#970D0D"/>
<path d="M47.8336 83.4521L45.7669 83.191C34.0613 81.7104 23.903 74.0076 19.2558 63.091C17.5002 58.9049 16.6113 54.5021 16.6113 49.9965C16.6113 35.1854 26.1086 22.3271 40.2419 17.9965C46.8308 15.9382 54.453 16.0743 60.9891 18.4077C71.2058 21.9632 79.0974 30.316 82.0808 40.7465C82.7224 42.8771 83.128 45.1354 83.2752 47.4326L83.4113 49.5104L79.253 49.7799L79.1197 47.6993C78.9919 45.7188 78.6447 43.7743 78.0863 41.9188C75.4669 32.7632 68.5586 25.4521 59.6086 22.3354C53.8863 20.2993 47.228 20.1854 41.478 21.9743C29.0947 25.766 20.7836 37.0271 20.7836 49.9938C20.7836 53.9438 21.5613 57.8049 23.0974 61.466C27.1613 71.016 36.0502 77.7604 46.2919 79.0549L48.3586 79.316L47.8336 83.4521Z" fill="black"/>
<path d="M25.3342 64.5835H21.2786C20.1286 64.5835 19.1953 63.6502 19.1953 62.5002C19.1953 61.3502 20.1286 60.4169 21.2786 60.4169H25.3342C26.9203 60.4169 28.4259 59.8002 29.5703 58.678C30.6786 57.5696 31.312 56.0696 31.3342 54.4724C31.3675 52.0419 32.1925 49.7641 33.712 47.8807C35.3286 45.9724 37.4675 44.6919 39.7592 44.2335C43.8286 43.3557 46.6925 39.8169 46.6925 35.6363V32.7196C46.6925 28.1946 44.2648 23.9557 40.3592 21.6557C39.3703 21.0696 39.037 19.7946 39.6203 18.803C40.2009 17.8141 41.4759 17.478 42.4731 18.0641C47.6453 21.1113 50.8592 26.7252 50.8592 32.7196V35.6363C50.8592 41.7974 46.6425 47.0085 40.6064 48.3113C38.812 48.6696 37.6175 49.7196 36.9231 50.5391C36.0231 51.6474 35.5203 53.0391 35.5009 54.5252C35.4648 57.2141 34.4009 59.7391 32.5009 61.6391C30.5592 63.5446 28.0203 64.5835 25.3342 64.5835Z" fill="black"/>
<path d="M70.4993 44.4161C66.2354 44.4161 62.3577 42.2244 60.1354 38.5522C56.716 32.8217 56.066 25.9383 58.3465 19.6494C58.7382 18.5689 59.9299 18.0161 61.016 18.4022C62.0993 18.7967 62.6577 19.9883 62.2632 21.0717C60.4104 26.1772 60.9354 31.7661 63.7049 36.405C65.3299 39.0856 68.3493 40.605 71.4688 40.1856L79.8077 39.1828C80.9216 39.0356 81.9854 39.8578 82.1243 40.9994C82.2632 42.1411 81.4493 43.18 80.3077 43.3161L72.0021 44.3161C71.5188 44.3856 71.0104 44.4161 70.4993 44.4161Z" fill="black"/>
<path d="M51.9023 79.7207L78.4561 53.167L81.4019 56.1128L54.8482 82.6665L51.9023 79.7207Z" fill="black"/>
<path d="M66.6664 83.3329C68.2006 83.3329 69.4442 82.0892 69.4442 80.5551C69.4442 79.021 68.2006 77.7773 66.6664 77.7773C65.1323 77.7773 63.8887 79.021 63.8887 80.5551C63.8887 82.0892 65.1323 83.3329 66.6664 83.3329Z" fill="black"/>
<path d="M58.8306 75.6194L55.875 72.6833L57.3417 71.2056C59.8222 68.7056 63.1417 67.3 66.6861 67.25H66.8917C70.3611 67.25 73.6417 68.5528 76.1472 70.9306L77.6583 72.3667L74.7889 75.3889L73.2778 73.9528C71.5167 72.2806 69.1694 71.3667 66.7444 71.4167C64.2944 71.4528 62.0056 72.4167 60.2972 74.1389L58.8306 75.6194Z" fill="black"/>
<path d="M52.0942 69.2306L49.1387 66.2945L50.6053 64.8167C54.8276 60.5695 60.4887 58.1779 66.547 58.089C72.7248 57.939 78.3387 60.2279 82.6859 64.3501L84.197 65.7834L81.3276 68.8084L79.8164 67.3723C76.2692 64.0029 71.6053 62.1723 66.6081 62.2556C61.6442 62.3279 57.0109 64.2806 53.5637 67.7529L52.0942 69.2306Z" fill="black"/>
</svg>
