<svg width="60" height="60" viewBox="0 0 60 60" fill="none" xmlns="http://www.w3.org/2000/svg">
<rect width="60" height="60" rx="6" fill="#D32F2F"/>
<g clip-path="url(#clip0_1578_1307)">
<path fill-rule="evenodd" clip-rule="evenodd" d="M39.9293 36.6217C44.2191 37.9759 47 40.1406 47 42.582C47 46.6803 39.1667 50.0007 29.5 50.0007C19.8333 50.0007 12 46.6803 12 42.582C12 40.082 14.9205 37.8717 19.3758 36.5273C19.538 36.7747 19.7003 37.0221 19.8658 37.263C20.214 37.7708 20.18 37.7836 19.3758 38C16.2541 38.8398 13 41 13.5 42.3411C12.5 45.5 22.0236 48.5 29.5 48.5C36.9764 48.5 45.5 44.8737 45.5 42.3411C45.5 40.987 42.2582 38.8398 39.5 38C40.0419 37.2546 39.449 37.4095 39.9293 36.612V36.6217Z" fill="white"/>
<path fill-rule="evenodd" clip-rule="evenodd" d="M29.5227 16.2516C30.6904 16.2516 31.8319 16.598 32.8028 17.247C33.7737 17.8959 34.5304 18.8183 34.9772 19.8975C35.4241 20.9767 35.541 22.1642 35.3132 23.3098C35.0854 24.4555 34.5231 25.5078 33.6974 26.3338C32.8717 27.1597 31.8198 27.7222 30.6745 27.9501C29.5293 28.178 28.3422 28.061 27.2634 27.614C26.1846 27.167 25.2625 26.41 24.6138 25.4388C23.9651 24.4676 23.6188 23.3257 23.6188 22.1576C23.6188 20.5912 24.2408 19.089 25.348 17.9815C26.4552 16.8739 27.9569 16.2516 29.5227 16.2516ZM29.8757 40.0365C31.442 39.0239 32.8701 37.8117 34.1239 36.4306C36.7805 33.5385 38.6217 29.9927 39.4595 26.1555C40.1887 22.6067 39.8488 19.1462 38.2268 16.4619C37.7557 15.6861 37.1764 14.9815 36.5062 14.3695C34.5443 12.5782 32.3073 11.7242 30.0314 11.7034C27.6542 11.6852 25.2408 12.5964 23.1076 14.2838C22.2271 14.9796 21.47 15.8186 20.868 16.7656C19.3706 19.1254 18.919 22.0538 19.4121 25.1197C19.9155 28.2349 21.4 31.5085 23.7641 34.4654C25.4984 36.6299 27.5605 38.5096 29.8757 40.0365ZM35.3877 37.5806C33.9193 39.1944 32.2305 40.5928 30.3713 41.7343C30.233 41.8365 30.067 41.8945 29.8952 41.9005C29.7233 41.9065 29.5536 41.8604 29.4085 41.768C26.7527 40.0922 24.3936 37.9868 22.4276 35.5376C19.8844 32.3418 18.2754 28.7879 17.7304 25.3871C17.1699 21.9136 17.6967 18.5673 19.4251 15.8492C20.1307 14.7422 21.0166 13.7612 22.0461 12.9469C24.483 11.0051 27.2727 9.97703 30.0469 10.0004C32.7225 10.0238 35.367 11.018 37.6533 13.1156C38.4446 13.838 39.128 14.6703 39.6827 15.587C41.5382 18.6504 41.943 22.5522 41.1282 26.5034C40.2286 30.6413 38.2478 34.4664 35.3877 37.5884V37.5806Z" fill="white"/>
</g>
<defs>
<clipPath id="clip0_1578_1307">
<rect width="35" height="40" fill="white" transform="translate(12 10)"/>
</clipPath>
</defs>
</svg>
