<svg width="60" height="60" viewBox="0 0 60 60" fill="none" xmlns="http://www.w3.org/2000/svg">
<rect width="60" height="60" rx="6" fill="#D32F2F"/>
<g clip-path="url(#clip0_1578_1275)">
<path fill-rule="evenodd" clip-rule="evenodd" d="M45.2819 22.0607C44.6419 22.7573 43.8969 23.3791 43.06 23.8836C42.9583 23.9585 42.8171 23.9683 42.7023 23.8934C41.4682 23.1154 40.4278 22.1779 39.6139 21.159C38.4882 19.7593 37.7793 18.2065 37.5364 16.7124C37.2903 15.1955 37.52 13.7371 38.2814 12.549C38.5834 12.0835 38.9674 11.6538 39.4334 11.286C40.5066 10.4396 41.7308 9.99039 42.955 10.0002C44.1299 10.0099 45.2917 10.4429 46.296 11.3511C46.6505 11.6701 46.9459 12.0314 47.1887 12.4285C48.0059 13.7664 48.1832 15.4689 47.8221 17.1974C47.4677 18.9064 46.5881 20.6414 45.2819 22.0607ZM19.8367 39.9676C19.1967 40.6642 18.4517 41.286 17.6148 41.7905C17.5131 41.8654 17.372 41.8752 17.2571 41.8003C16.0231 41.019 14.9827 40.0848 14.1688 39.0659C13.0463 37.6694 12.3374 36.1167 12.0945 34.6193C11.8484 33.1024 12.0781 31.644 12.8396 30.4591C13.1382 29.9904 13.5222 29.564 13.9915 29.1961C15.0647 28.3498 16.2889 27.9005 17.5098 27.9103C18.6848 27.9201 19.8466 28.353 20.8509 29.2612C21.2053 29.5802 21.5007 29.9416 21.7436 30.3387C22.5608 31.6766 22.738 33.3791 22.377 35.1076C22.0225 36.8133 21.143 38.5483 19.8367 39.9676ZM17.6017 43.5418C19.0819 43.5418 20.3323 44.5249 20.7261 45.866H40.4082C41.3796 45.866 42.2658 45.4722 42.909 44.8341C43.5523 44.1961 43.9494 43.3205 43.9494 42.3537C43.9494 41.3901 43.5523 40.5112 42.909 39.8732C42.2658 39.2352 41.3829 38.8413 40.4082 38.8413H33.5226C31.9768 38.8413 30.5721 38.2163 29.5547 37.2072C28.5372 36.1981 27.9071 34.8048 27.9071 33.2716C27.9071 31.7384 28.5372 30.3452 29.5547 29.3361C30.5721 28.327 31.9768 27.702 33.5226 27.702H39.7485C40.1751 26.4129 41.3993 25.4819 42.8401 25.4819C44.6386 25.4819 46.0958 26.9272 46.0958 28.7111C46.0958 30.4949 44.6386 31.9403 42.8401 31.9403C41.4124 31.9403 40.2014 31.0288 39.7616 29.7625H33.5226C32.5511 29.7625 31.665 30.1564 31.0217 30.7944C30.3784 31.4324 29.9813 32.3081 29.9813 33.2749C29.9813 34.2384 30.3784 35.1173 31.0217 35.7554C31.6584 36.3869 32.5347 36.7808 33.4996 36.7873H40.4114C41.9572 36.7873 43.3619 37.4123 44.3793 38.4214C45.3968 39.4305 46.0269 40.8237 46.0269 42.3569C46.0269 43.8901 45.3968 45.2834 44.3793 46.2925C43.3619 47.3016 41.9572 47.9266 40.4114 47.9266H20.6441C20.1748 49.1408 18.99 50.0002 17.6017 50.0002C15.8032 50.0002 14.346 48.5548 14.346 46.771C14.346 44.9871 15.8032 43.5418 17.6017 43.5418ZM17.2768 30.6056C18.7274 30.6056 19.9024 31.771 19.9024 33.2098C19.9024 34.6486 18.7274 35.814 17.2768 35.814C15.8262 35.814 14.6512 34.6486 14.6512 33.2098C14.6512 31.771 15.8262 30.6056 17.2768 30.6056ZM42.7219 12.6955C44.1726 12.6955 45.3475 13.8608 45.3475 15.2996C45.3475 16.7384 44.1726 17.9038 42.7219 17.9038C41.2713 17.9038 40.0964 16.7384 40.0964 15.2996C40.0964 13.8608 41.2713 12.6955 42.7219 12.6955Z" fill="white"/>
</g>
<defs>
<clipPath id="clip0_1578_1275">
<rect width="36" height="40" fill="white" transform="translate(12 10)"/>
</clipPath>
</defs>
</svg>
