<svg width="60" height="60" viewBox="0 0 60 60" fill="none" xmlns="http://www.w3.org/2000/svg">
<rect width="60" height="60" rx="6" fill="#D32F2F"/>
<g clip-path="url(#clip0_1578_1325)">
<path d="M28.021 30.1995C27.8635 30.2931 27.6831 30.3135 27.5191 30.2707C27.355 30.2275 27.2072 30.1207 27.1144 29.9615C27.022 29.8019 27.0018 29.6187 27.0445 29.4529C27.0868 29.2871 27.1919 29.1371 27.3491 29.0435L39.0918 21.9381L40.1318 18.6547C40.1575 18.5733 40.1969 18.5001 40.2467 18.4375C40.2988 18.3723 40.3619 18.3182 40.4319 18.277L46.4196 14.7751C46.5785 14.6821 46.7601 14.663 46.9238 14.7075C47.0882 14.752 47.2357 14.8601 47.3275 15.021C47.3737 15.1021 47.4014 15.1881 47.4118 15.2748C47.4226 15.3638 47.4157 15.4534 47.3923 15.5385L46.86 18.274L49.5612 19.2589C49.7334 19.3216 49.865 19.4495 49.9369 19.6047C50.0092 19.76 50.0228 19.9436 49.961 20.1179C49.9336 20.1947 49.8942 20.263 49.8457 20.3216C49.8135 20.3605 49.7771 20.3958 49.7373 20.4258L49.7409 20.4314L49.6687 20.4736L43.6803 23.9745C43.5944 24.0246 43.5016 24.0533 43.4085 24.0622C43.3118 24.0711 43.2152 24.0586 43.1256 24.0263L39.7584 23.0967L28.0217 30.1991L28.021 30.1995ZM31.133 13.5828C32.6493 13.9945 34.0614 14.6037 35.3492 15.376C36.68 16.174 37.8785 17.1461 38.9225 18.2542C38.97 18.3043 38.9677 18.3841 38.9179 18.4319C38.9147 18.4352 38.9111 18.4385 38.9075 18.4411L37.9726 19.1571C37.9205 19.197 37.8466 19.1887 37.8043 19.1393C36.8561 18.1511 35.7721 17.2842 34.5719 16.5715C33.4088 15.8806 32.1347 15.3348 30.7675 14.9636C28.7561 14.4181 26.731 14.3027 24.7876 14.5618C22.7687 14.8311 20.838 15.5045 19.102 16.5194C17.3657 17.5347 15.8243 18.8911 14.5847 20.5267C13.3914 22.1013 12.4776 23.9346 11.9389 25.9714C11.4001 28.0081 11.2862 30.0587 11.5421 32.0262C11.808 34.0699 12.473 36.0256 13.4757 37.7834L13.4789 37.79C14.4809 39.5453 15.8191 41.1041 17.4327 42.358C18.9874 43.5664 20.798 44.4919 22.8091 45.0375C24.8202 45.583 26.8452 45.6984 28.7883 45.4393C30.8065 45.17 32.7375 44.4966 34.4739 43.4813C36.2102 42.4664 37.7519 41.1097 38.9915 39.4744C40.1849 37.8998 41.0989 36.0661 41.6373 34.03C41.9964 32.6736 42.167 31.3116 42.165 29.9727C42.1634 28.5912 41.9782 27.2319 41.6269 25.9269C41.61 25.8643 41.6432 25.8 41.7015 25.7766L42.7724 25.296C42.8353 25.268 42.9088 25.297 42.9362 25.3603C42.9394 25.3675 42.942 25.3748 42.9433 25.382C43.3483 26.8287 43.5661 28.3401 43.5762 29.8801C43.5859 31.3723 43.4004 32.8899 43.001 34.3992C42.4124 36.6225 41.4147 38.6243 40.1116 40.3436C38.7581 42.1299 37.0751 43.6109 35.1803 44.7191L35.1734 44.723C33.2799 45.8286 31.174 46.5626 28.9725 46.856C26.8501 47.1391 24.6392 47.0136 22.4442 46.4179C20.2488 45.8223 18.2723 44.812 16.574 43.4925C14.8106 42.122 13.3477 40.4178 12.2533 38.4987C11.1592 36.579 10.433 34.4444 10.1426 32.2118C9.86333 30.0627 9.98735 27.8239 10.5756 25.6012C11.1638 23.3779 12.1618 21.3761 13.4646 19.6568C14.8181 17.8706 16.5011 16.3892 18.3959 15.2814C20.2915 14.1735 22.3996 13.4384 24.604 13.1444C26.7264 12.8616 28.9377 12.9872 31.133 13.5828ZM28.1734 24.9901C28.3872 25.0508 28.5949 25.1243 28.7958 25.2103C29.0022 25.2986 29.2007 25.3995 29.3902 25.5119C29.4491 25.5468 29.469 25.6236 29.4344 25.6836C29.426 25.6985 29.4149 25.7107 29.4022 25.7202L28.3713 26.51C28.3329 26.5393 28.2831 26.5426 28.2424 26.5229C28.1698 26.4915 28.0962 26.4629 28.023 26.4368C27.9494 26.4104 27.8729 26.3864 27.7938 26.3636L27.7577 26.3554L27.7531 26.3541C27.2652 26.2219 26.7739 26.1939 26.3032 26.2565C25.814 26.3218 25.3459 26.4853 24.925 26.7312C24.5041 26.9774 24.13 27.3064 23.8296 27.7029C23.5402 28.0846 23.3185 28.5293 23.1877 29.023C23.0571 29.5172 23.0294 30.0146 23.0913 30.4915C23.1558 30.9869 23.3169 31.4609 23.5601 31.8875C23.8032 32.3137 24.1281 32.6921 24.5194 32.9963C24.8967 33.2897 25.3358 33.5138 25.8231 33.6463C25.8293 33.648 25.8358 33.6503 25.8413 33.6529C26.3228 33.7808 26.8075 33.8069 27.2723 33.7446C27.7616 33.679 28.23 33.5155 28.6512 33.2693C29.0731 33.0227 29.4471 32.6934 29.7476 32.2979L29.7473 32.2975C30.037 31.9161 30.2584 31.4721 30.3895 30.9794L30.411 30.8927C30.4211 30.8528 30.4491 30.8218 30.4846 30.8073L31.7401 30.244C31.803 30.216 31.8762 30.245 31.9042 30.3082C31.9127 30.3284 31.9159 30.3494 31.914 30.3699C31.9026 30.5321 31.8827 30.6956 31.8557 30.8594C31.8283 31.0219 31.7938 31.1841 31.7512 31.3452L31.7509 31.3459L31.7502 31.3492L31.7486 31.3548C31.5683 32.0328 31.2636 32.6436 30.8658 33.1684C30.4517 33.7152 29.9367 34.1685 29.3573 34.5076L29.3505 34.5116C28.7723 34.8482 28.1298 35.0716 27.4579 35.1613C26.8137 35.247 26.1428 35.2097 25.4771 35.0317C25.4705 35.0311 25.464 35.0298 25.4579 35.0281C24.786 34.8458 24.1802 34.5363 23.6603 34.1322C23.1203 33.7126 22.672 33.1908 22.3371 32.6024C22.0021 32.0147 21.7794 31.3607 21.6909 30.6778C21.6053 30.0192 21.643 29.3335 21.8231 28.6532C22.0031 27.9729 22.3087 27.3598 22.7078 26.8334C23.1222 26.2862 23.6379 25.8326 24.2183 25.4934L24.2251 25.4895C24.8036 25.1526 25.4468 24.9288 26.1193 24.8391C26.7694 24.7524 27.4465 24.7907 28.118 24.973L28.1236 24.9746C28.132 24.9769 28.1398 24.9792 28.1464 24.9815C28.1561 24.9838 28.1652 24.9868 28.1734 24.9901ZM29.6438 19.2092C30.5266 19.4488 31.356 19.7903 32.1223 20.2181C32.9123 20.6592 33.635 21.1919 34.2815 21.7984C34.3316 21.8458 34.3346 21.9253 34.288 21.976C34.2828 21.9813 34.2779 21.9862 34.2721 21.9905L33.3274 22.7141C33.2769 22.7526 33.2069 22.7464 33.164 22.7019C32.6168 22.2107 32.0093 21.7792 31.3495 21.42C30.7066 21.0702 30.0142 20.7894 29.2788 20.59C28.0201 20.2485 26.7525 20.1763 25.5363 20.3385C24.2736 20.5069 23.0653 20.9282 21.9787 21.5633L21.9721 21.5666C20.8885 22.2012 19.9262 23.0489 19.1515 24.0708C18.4047 25.056 17.8328 26.2038 17.4959 27.4781C17.1586 28.7528 17.0873 30.036 17.2472 31.2671C17.4135 32.5464 17.8299 33.7703 18.4568 34.8702C19.0841 35.9702 19.9223 36.9472 20.9331 37.7324C21.9064 38.4888 23.0395 39.068 24.298 39.4095C25.5565 39.7513 26.8241 39.8235 28.0396 39.6613C29.3029 39.4925 30.5116 39.0713 31.5982 38.4361C32.6848 37.8006 33.6493 36.9518 34.425 35.9287C35.1715 34.9434 35.7437 33.796 36.0807 32.5217C36.2659 31.8219 36.371 31.1204 36.4013 30.4272C36.4329 29.7136 36.3854 29.0072 36.2659 28.3186C36.2558 28.259 36.2887 28.202 36.3417 28.1802L37.4313 27.6914C37.4938 27.6633 37.5673 27.6924 37.595 27.7556C37.6002 27.7672 37.6028 27.7787 37.6044 27.7903C37.7705 28.6202 37.8443 29.4756 37.8173 30.3419C37.7913 31.1867 37.6695 32.0414 37.4446 32.8915C37.0579 34.3527 36.402 35.6683 35.5455 36.7985C34.6562 37.972 33.5497 38.9457 32.3036 39.6742L32.3039 39.6745C31.0582 40.4026 29.6721 40.8862 28.2232 41.0794C26.828 41.2653 25.3748 41.1829 23.9325 40.7916C22.4894 40.4 21.1902 39.7355 20.0737 38.8682C18.9145 37.9674 17.9529 36.8473 17.2338 35.5862L17.2299 35.5789C16.5128 34.3194 16.0369 32.9185 15.8464 31.454C15.6629 30.0413 15.7442 28.5698 16.131 27.1089C16.5177 25.648 17.1733 24.3322 18.0301 23.2019C18.9197 22.0278 20.0258 21.0541 21.2716 20.3259L21.2785 20.322C22.5226 19.5958 23.9058 19.1139 25.3517 18.9214C26.7479 18.7352 28.2014 18.8179 29.6438 19.2092ZM45.4492 18.5806L45.8193 16.68L41.3167 19.3123L40.4948 21.9081L43.2542 22.6699L47.7663 20.0319L45.8757 19.342C45.7227 19.2866 45.5993 19.1772 45.5231 19.0407C45.4473 18.9059 45.4173 18.7441 45.4492 18.5806Z" fill="white"/>
</g>
<defs>
<clipPath id="clip0_1578_1325">
<rect width="40" height="34" fill="white" transform="translate(10 13)"/>
</clipPath>
</defs>
</svg>
