<svg width="60" height="60" viewBox="0 0 60 60" fill="none" xmlns="http://www.w3.org/2000/svg">
<rect width="60" height="60" rx="6" fill="#D32F2F"/>
<g clip-path="url(#clip0_1578_1290)">
<path d="M24.7293 35.9505C24.2789 35.9505 23.9167 35.5176 23.9167 34.9837C23.9167 34.4499 24.2822 34.0169 24.7293 34.0169H29.1768C29.6271 34.0169 29.9893 34.4499 29.9893 34.9837C29.9893 35.5176 29.6239 35.9505 29.1768 35.9505H24.7293ZM39.9515 31.9434C42.451 31.9434 44.7123 32.9525 46.3504 34.5866C47.9884 36.2207 49 38.4766 49 40.9701C49 43.4635 47.9884 45.7194 46.3504 47.3535C44.7123 48.9876 42.451 49.9967 39.9515 49.9967C37.452 49.9967 35.1907 48.9876 33.5526 47.3535C31.9145 45.7194 30.903 43.4635 30.903 40.9701C30.903 38.4766 31.9145 36.2207 33.5526 34.5866C35.1907 32.9525 37.452 31.9434 39.9515 31.9434ZM39.2597 36.748C39.2597 36.3021 39.6219 35.9408 40.069 35.9408C40.516 35.9408 40.8782 36.3021 40.8782 36.748V40.9538L44.0303 42.8158C44.4154 43.0404 44.5426 43.5352 44.3142 43.9193C44.0891 44.3034 43.5931 44.4303 43.208 44.2025L39.7002 42.1289C39.4392 41.9954 39.2597 41.7253 39.2597 41.4095V36.748ZM45.2083 35.7292C43.8639 34.388 42.004 33.5579 39.9515 33.5579C37.899 33.5579 36.0391 34.388 34.6947 35.7292C33.3503 37.0703 32.5182 38.9258 32.5182 40.9733C32.5182 43.0208 33.3503 44.8763 34.6947 46.2174C36.0391 47.5586 37.899 48.3887 39.9515 48.3887C42.004 48.3887 43.8639 47.5586 45.2083 46.2174C46.5527 44.8763 47.3848 43.0208 47.3848 40.9733C47.3848 38.9258 46.5527 37.0703 45.2083 35.7292ZM26.3902 45.7878C26.9253 45.7878 27.3593 46.2207 27.3593 46.7546C27.3593 47.2884 26.9253 47.7214 26.3902 47.7214H14.258C13.6381 47.7214 13.0736 47.4674 12.6624 47.0605C12.2545 46.6536 12 46.0905 12 45.472V12.2526C12 11.6309 12.2545 11.071 12.6624 10.6608C13.0703 10.2539 13.6348 10 14.258 10H41.9615C42.5815 10 43.146 10.2539 43.5572 10.6608C43.9651 11.0677 44.2196 11.6309 44.2196 12.2526V27.6432C44.2196 28.1771 43.7856 28.61 43.2505 28.61C42.7153 28.61 42.2813 28.1771 42.2813 27.6432V12.2526C42.2813 12.168 42.2454 12.0898 42.1867 12.0312C42.128 11.9727 42.0497 11.9368 41.9648 11.9368H14.258C14.1732 11.9368 14.0916 11.9727 14.0362 12.0312C13.9742 12.0866 13.9383 12.1647 13.9383 12.2526V45.472C13.9383 45.5566 13.9742 45.638 14.0329 45.6934C14.0916 45.752 14.1699 45.7878 14.2548 45.7878H26.3902ZM18.239 33.597H20.67C20.8462 33.597 20.9898 33.7402 20.9898 33.916V36.3411C20.9898 36.5169 20.8462 36.6602 20.67 36.6602H18.239C18.0628 36.6602 17.9192 36.5169 17.9192 36.3411V33.916C17.9225 33.737 18.0661 33.597 18.239 33.597ZM18.239 16.9954H20.67C20.8462 16.9954 20.9898 17.1387 20.9898 17.3145V19.7396C20.9898 19.9154 20.8462 20.0586 20.67 20.0586H18.239C18.0628 20.0586 17.9192 19.9154 17.9192 19.7396V17.3145C17.9225 17.1387 18.0661 16.9954 18.239 16.9954ZM24.7293 19.349C24.2789 19.349 23.9167 18.916 23.9167 18.3822C23.9167 17.8483 24.2822 17.4154 24.7293 17.4154H36.3001C36.7504 17.4154 37.1126 17.8483 37.1126 18.3822C37.1126 18.916 36.7472 19.349 36.3001 19.349H24.7293ZM19.2342 28.2747C19.0254 28.4408 18.7252 28.3984 18.5131 28.1934C18.4903 28.1771 18.4674 28.1576 18.4446 28.1348L17.4265 27.0866C17.2144 26.8652 17.2633 26.4974 17.5374 26.263C17.8115 26.0286 18.2064 26.0156 18.4217 26.237L18.9765 26.8066L20.7614 25.3743C20.9996 25.1823 21.365 25.2669 21.5739 25.5599C21.7827 25.8529 21.7566 26.2467 21.5184 26.4388L19.2342 28.2747ZM24.1941 27.4642C23.7438 27.4642 23.3816 27.0312 23.3816 26.4974C23.3816 25.9635 23.7471 25.5306 24.1941 25.5306H35.765C36.2153 25.5306 36.5775 25.9635 36.5775 26.4974C36.5775 27.0312 36.212 27.4642 35.765 27.4642H24.1941Z" fill="white"/>
</g>
<defs>
<clipPath id="clip0_1578_1290">
<rect width="37" height="40" fill="white" transform="translate(12 10)"/>
</clipPath>
</defs>
</svg>
